<svg xmlns="http://www.w3.org/2000/svg" viewBox="0 0 500 500" xmlns:v="https://vecta.io/nano"><path d="M443.642 500H56.379C25.256 500 0 474.764 0 443.632V56.368C0 25.235 25.256 0 56.379 0h387.263C474.775 0 500 25.235 500 56.368v387.263C500 474.764 474.775 500 443.642 500" fill="#00964b"/><path d="M144.95 378.216l-6.064-38.322-44.365.01-6.064 38.291-57.171.021v-.688l54.139-256.199h62.526l54.138 256.22.021.667h-57.16zm-28.257-174.19l-14.129 87.439h28.247l-14.118-87.439zm95.474 174.187V121.316h57.171v205.447h67.246v51.45zm136.526-.014V121.312l57.171.01-.031 205.447h67.277v51.461z" fill="#fff"/></svg>