<svg xmlns="http://www.w3.org/2000/svg" viewBox="0 0 500 500" xmlns:v="https://vecta.io/nano"><path d="M443.62 500H56.35C25.209 500 0 474.791 0 443.65V56.371C0 25.24 25.209 0 56.35 0h387.27c31.13 0 56.36 25.24 56.36 56.371v387.28c0 31.14-25.23 56.35-56.36 56.35" fill="#d61d28"/><path d="M105.917 422.269V173.764h-27.52l35.648-96.051h68.975v344.556zm310.708-141.164c-.588-4.198-1.64-7.819-3.136-10.82a23.29 23.29 0 0 0-6.096-7.674c-2.548-2.104-5.787-4.198-9.686-6.302l-22.992-10.82 22.992-12.192c6.911-4.208 11.8-8.86 14.658-13.977 2.847-5.106 4.26-12.77 4.26-22.992V85.403c0-4.25-3.445-7.695-7.695-7.695H217.332c-4.25 0-7.705 3.445-7.705 7.695v110.925c0 9.892 1.455 17.504 4.291 22.754 2.857 5.292 7.757 10.005 14.647 14.214l23.002 12.192-23.002 10.82c-7.839 4.198-12.997 9.18-15.555 14.864-2.548 5.735-3.827 14.142-3.827 25.282v65.251 20.434 32.43c0 4.25 3.456 7.705 7.705 7.705h192.97c4.24 0 7.684-3.456 7.684-7.705v-32.43-20.434-65.251c0-6.024-.309-11.14-.918-15.349m-75.752 69.883c0 4.25-3.456 7.685-7.695 7.685h-39.609c-4.239 0-7.705-3.435-7.705-7.685v-68.954c0-4.25 3.466-7.695 7.705-7.695h39.609c4.239 0 7.695 3.445 7.695 7.695v68.954zm0-141.911c0 4.25-3.456 7.695-7.695 7.695h-39.609c-4.239 0-7.705-3.445-7.705-7.695v-60.3c0-4.239 3.466-7.684 7.705-7.684h39.609c4.239 0 7.695 3.445 7.695 7.684v60.3z" fill="#fff"/></svg>