<svg xmlns="http://www.w3.org/2000/svg" viewBox="0 0 500 500" xmlns:v="https://vecta.io/nano"><path d="M443.638 500H56.352C25.252 500 0 474.759 0 443.638V56.362C0 25.241 25.252 0 56.352 0h387.285C474.769 0 500 25.241 500 56.362v387.275C500 474.759 474.769 500 443.638 500" fill="#dc7317"/><path d="M107.957 422.277V173.783H80.436l35.619-96.076h69.04v344.57zm299.868-226.859h-31.534-21.332-67.988v-50.514h126.3V77.701H211.217v183.56h129.446v96.055h-54.578v-45.109h-74.868v49.482 20.455 32.421c0 4.25 3.456 7.695 7.706 7.695h31.101 21.765 83.172 21.332 31.534c4.25 0 7.695-3.445 7.695-7.695v-32.421-20.455-105.7-20.455-32.421c0-4.25-3.445-7.695-7.695-7.695" fill="#fff"/></svg>