<svg xmlns="http://www.w3.org/2000/svg" viewBox="0 0 500 500" xmlns:v="https://vecta.io/nano"><path d="M443.617 500H56.373C25.241 500 0 474.769 0 443.648V56.373C0 25.241 25.241 0 56.373 0h387.244C474.738 0 500 25.241 500 56.373v387.275C500 474.769 474.738 500 443.617 500" fill="#eabc00"/><path d="M108.175 422.27V173.766H80.664l35.629-96.045h69.009V422.27zM407.596 77.719h-32.875-19.991-82.728-19.96-32.906c-4.25 0-7.695 3.445-7.695 7.695v31.988 20.888 51.267h75.332v-46.903H340v41.478l-131.272 187.18v50.535h205.686v-67.224H304.372l96.045-134.841c3.012-4.219 5.405-7.891 7.221-11.058 1.815-3.156 3.311-6.22 4.518-9.253 1.186-2.992 2.022-6.303 2.465-9.913.464-3.61.67-7.963.67-13.08V138.29v-20.888-31.988a7.69 7.69 0 0 0-7.695-7.695" fill="#fff"/></svg>